<svg xmlns="http://www.w3.org/2000/svg" viewBox="0 0 229.11 193.18">
  <g id="Layer_2" data-name="Layer 2">
    <g id="Layer_1-2" data-name="Layer 1">
      <g>
        <path d="M212,1.33a312,312,0,0,0-56.61,47.36c-6.81,7.28-12.53,14.62-11.28,24.47a16.24,16.24,0,0,1-2,3.52c-1.54,1.93.27,1.47-2.54.95-1.93-.35-4.11-2.16-6-2.83-3.86-1.4-7.86-1.76-11.71-.11-4.52,1.92-6,5.44-8.83,9-3.91,4.91-9.86,4.2-15.3,2.2C87.12,82,77.8,75.17,67.14,71.27,44.51,63,22.66,71.74,7.28,89.54c-17.87,20.68.34,45.29,20.47,55.72,23.07,12,53.84-8.14,70.16-23.75,7.45-7.13-3.72-18.6-11.18-11.46A91.17,91.17,0,0,1,65,125.61C57.53,129.42,46,135,37.38,132.15c-6.82-2.28-14.93-9.37-18.78-15.33-5.34-8.25-1.92-14.61,4.63-20.65S37.71,84.29,47,83.71c8.38-.52,16.67,3,24,6.61,13.74,6.77,28.68,17.74,44.6,11.13a23.09,23.09,0,0,0,7.29-4.6c.64-.62,4.91-7.4,4.48-7.28,1.77-.46,6.72,3.28,8.36,3.81a17.44,17.44,0,0,0,9.33.7,14,14,0,0,0,6.07-3.15,110.92,110.92,0,0,0,10.41,14.35c7.18,8.51,15.82,14.21,27.28,14.16,10.17,0,22.17-2.56,30.2-9.17C235.7,96.56,229.17,71.7,217.61,57c-6.69-8.53-16.21-14.63-27.11-15.86a29.69,29.69,0,0,0-4.19-.18,296.73,296.73,0,0,1,33.54-25.67C228.4,9.66,220.62-4.35,212,1.33ZM197.34,59.91c7.47,4.34,12.69,12.79,14.87,21,1.76,6.67,1.5,13.79-4.66,18-6,4.08-17.77,6.15-24.64,3.69-8.54-3.07-15.1-14.81-19.12-22.29A50.06,50.06,0,0,1,161,74.72c3-4.58,6.72-8.13,12-12C180.63,57.13,188.73,54.92,197.34,59.91Z" style="fill: #c72127"/>
        <path d="M117,111.85a179.57,179.57,0,0,0-36.45,71.21c-2.51,10,12.86,14.51,15.37,4.5a162,162,0,0,1,32.26-64.25C134.71,115.46,123.6,103.91,117,111.85Z" style="fill: #c72127"/>
        <path d="M186.34,130.46c-6.43-2.72-11.66-8.31-17.24-12.39a148,148,0,0,0-19.35-11.88c-9.12-4.73-17.42,9-8.25,13.72a145,145,0,0,1,21.28,13.32c6.24,4.76,11.77,9.51,19.07,12.6C191.34,149.84,195.73,134.42,186.34,130.46Z" style="fill: #c72127"/>
      </g>
    </g>
  </g>
</svg>
